<?xml version="1.0" encoding="UTF-8"?>
<svg id="_图层_1" data-name="图层 1" xmlns="http://www.w3.org/2000/svg" viewBox="0 0 160 160">
  <defs>
    <style>
      .cls-1 {
        fill: none;
      }
    </style>
  </defs>
  <path class="cls-1" d="M35.72,84.98c.32.68.65,1.35,1.01,1.98l10.43,1.45-11.43-3.43Z"/>
  <path class="cls-1" d="M95.42,114.07c.27-.63.89-1.07,1.61-1.07.96,0,1.75.78,1.75,1.75s-.78,1.75-1.75,1.75c-.72,0-1.34-.44-1.61-1.07h-2.01v2.41l-7.29,4.14v2.48c.63.27,1.07.89,1.07,1.61,0,.96-.78,1.75-1.75,1.75s-1.74-.78-1.74-1.75c0-.72.44-1.34,1.06-1.61v-1.7l-4.75,2.7-4.76-2.68v1.68c.63.27,1.07.89,1.07,1.61,0,.96-.78,1.75-1.74,1.75s-1.74-.78-1.74-1.75c0-.72.44-1.34,1.07-1.61v-2.44l-7.41-4.17v-2.41h-1.89c-.27.63-.89,1.07-1.61,1.07-.96,0-1.74-.78-1.74-1.75s.78-1.75,1.74-1.75c.72,0,1.34.44,1.61,1.07h1.89v-3.94c-4.16-.1-7.25-1-9.81-2.18.04,4.19.08,7.49.11,8.54.1,3.34,2.18,4.8,5.05,6.83,2.65,1.87,15.91,9.24,18.18,10.5,2.27-1.26,15.53-8.63,18.14-10.47,2.91-2.05,4.98-3.51,5.09-6.85.03-1.05.07-4.35.11-8.54-2.58,1.19-5.71,2.1-9.93,2.18v3.94h2.01Z"/>
  <path class="cls-1" d="M86.12,114.07h5.93v-3.92c-2.3.02-4.77.03-5.93.03v3.89Z"/>
  <path class="cls-1" d="M96.82,95.53c-2.01-1.69-4.64-3.19-8.27-5.25-2.46-1.4-5.23-2.97-8.55-5.02-3.31,2.05-6.09,3.63-8.55,5.02-3.64,2.07-6.26,3.56-8.27,5.25-2.31,1.95-4.75,5.48-6.54,9.45,0,.49,0,.98.01,1.45,2.55,1.26,5.58,2.23,9.82,2.33v-4.2h-1.89c-.27.63-.89,1.07-1.61,1.07-.96,0-1.74-.78-1.74-1.75s.78-1.74,1.74-1.74c.72,0,1.34.44,1.61,1.06h1.89v-2.17l7.41-4.26v-2.58c-.63-.27-1.07-.89-1.07-1.61,0-.96.78-1.74,1.74-1.74s1.74.78,1.74,1.74c0,.72-.44,1.34-1.07,1.61v1.8l4.6-2.64,4.91,2.78v-1.94c-.63-.27-1.06-.89-1.06-1.61,0-.96.78-1.74,1.74-1.74s1.75.78,1.75,1.74c0,.72-.44,1.34-1.07,1.61v2.71l7.29,4.13v2.18h2.01c.27-.63.89-1.06,1.61-1.06.96,0,1.75.78,1.75,1.74s-.78,1.75-1.75,1.75c-.72,0-1.34-.44-1.61-1.07h-2.01v4.2c4.31-.09,7.37-1.06,9.95-2.33,0-.48,0-.96.01-1.45-1.79-3.97-4.23-7.5-6.54-9.45Z"/>
  <polygon class="cls-1" points="73.89 98.34 67.83 101.82 67.83 103.21 73.89 103.21 73.89 98.34"/>
  <polygon class="cls-1" points="79.32 103.21 79.24 95.27 75.24 97.56 75.24 103.21 79.32 103.21"/>
  <polygon class="cls-1" points="84.76 103.21 84.76 97.69 80.6 95.34 80.67 103.21 84.76 103.21"/>
  <path class="cls-1" d="M73.89,104.57h-6.06v4.22c2.33.02,4.87.03,6.06.03v-4.25Z"/>
  <path class="cls-1" d="M73.89,110.18c-1.18,0-3.72-.02-6.06-.03v3.92h6.06v-3.89Z"/>
  <path class="cls-1" d="M38.04,74.55l17.08,7.54c0-.12,0-.23,0-.32l-16.4-11.67v-.36c0-.08.11-5.56.09-9.77l-7.51-4.95c-.26,1.21-.42,2.76-.46,4.8-.05,2.39.12,5.6.59,9.12l5.89,3.8.74,1.81Z"/>
  <path class="cls-1" d="M80.54,83.29c2.02-1.31,3.93-2.55,4.24-4.9.17-1.34-.18-2.54-1.03-3.48-.93-1.03-2.38-1.64-3.72-1.62-.04,0-.08,0-.12,0-1.34,0-2.74.63-3.64,1.63-.85.94-1.2,2.14-1.03,3.48.3,2.35,2.21,3.59,4.24,4.9.18.12.36.23.54.35.18-.12.36-.23.53-.35Z"/>
  <path class="cls-1" d="M36.2,73.64l-4.54-2.93c.06.36.12.73.18,1.1l4.4,1.94-.05-.11Z"/>
  <path class="cls-1" d="M36.99,75.57l-4.85-2.14c.66,3.38,1.59,6.81,2.86,9.92l5.9,1.77-3.91-9.55Z"/>
  <path class="cls-1" d="M29.46,59.79c.05-2.27.24-4.11.61-5.57L2.51,36.06l4.76,14.46c.76,2.33,2.3,4.32,4.36,5.64l18.3,11.81c-.37-3.15-.51-6.01-.46-8.19Z"/>
  <polygon class="cls-1" points="80.67 115.43 80.6 123.54 84.76 121.18 84.76 115.43 80.67 115.43"/>
  <path class="cls-1" d="M4.96,61.42l6.2,11.5c1.34,2.49,3.62,4.35,6.34,5.17l15.85,4.76c-1.21-3.21-2.09-6.7-2.71-10.09l-25.68-11.34Z"/>
  <path class="cls-1" d="M13.58,85.12l7.5,8.05c2.03,2.18,4.88,3.41,7.86,3.41l12.94-.04c-2.08-2.37-4.17-5.15-6-8.32l-22.3-3.1Z"/>
  <path class="cls-1" d="M38.66,55.5c-.18-1.32-.67-4.4-3.67-4.4-1.15,0-2.57.41-3.33,2.54l7.12,4.69c-.02-1.31-.06-2.35-.12-2.84Z"/>
  <path class="cls-1" d="M42.57,85.62l12.59,3.78c-.02-2.37-.03-4.4-.04-5.82l-16.34-7.22,3.79,9.26Z"/>
  <path class="cls-1" d="M86.12,108.82c1.16,0,3.64-.02,5.93-.03v-4.22h-5.93v4.25Z"/>
  <polygon class="cls-1" points="80 84.45 80 84.45 80 84.45 80 84.45"/>
  <polygon class="cls-1" points="67.83 115.43 67.83 117.04 73.89 120.44 73.89 115.43 67.83 115.43"/>
  <polygon class="cls-1" points="92.05 117.04 92.05 115.43 86.12 115.43 86.12 120.41 92.05 117.04"/>
  <polygon class="cls-1" points="92.05 103.21 92.05 101.82 86.12 98.46 86.12 103.21 92.05 103.21"/>
  <polygon class="cls-1" points="75.24 104.57 75.24 114.07 80 114.07 84.76 114.07 84.76 104.57 80 104.57 75.24 104.57"/>
  <polygon class="cls-1" points="75.24 115.43 75.24 121.21 79.24 123.45 79.32 115.43 75.24 115.43"/>
  <path class="cls-1" d="M79.99,57.28c-9.83.09-14.97,5.69-16.27,7.36l4.64,4.21c1.31-1.44,5.27-5.09,11.64-5.05h.09c6.32,0,10.24,3.62,11.55,5.05l4.64-4.21c-1.31-1.66-6.44-7.27-16.29-7.36Z"/>
  <path class="cls-1" d="M44.99,97.88c.26.26.51.51.76.76l3.28-.77h-4.04Z"/>
  <path class="cls-1" d="M51.56,105.06c-1.52-.93-3.75-2.6-6.21-4.93l-17.69,4.14,7.11,3.71c2.52,1.31,5.45,1.57,8.15.72l9.63-3.03c-.15-.09-.31-.19-.46-.28l-.53-.33Z"/>
  <path class="cls-1" d="M55.07,97.85l-8.13,1.9c2.11,1.93,4.01,3.34,5.33,4.15l.53.33c.48.3.97.6,1.47.89l1.01-.32c-.02-2.24-.04-4.61-.05-6.96h-.16Z"/>
  <path class="cls-1" d="M55.21,96.42c-.01-1.92-.03-3.79-.04-5.52l-17.57-2.44c1.9,3.1,4.02,5.8,6.1,8.07l11.21-.03.3-.07Z"/>
  <path class="cls-1" d="M79.83,32.06c.26,0,.51,0,.77,0,19.27,0,31.75,12.55,34.25,15.28l4.81-4.13c-2.48-2.86-16.05-17.12-39.65-17.21-23.6.09-37.17,14.35-39.65,17.21l4.76,4.09c2.23-2.89,12.78-14.86,34.73-15.24Z"/>
  <path class="cls-1" d="M103.42,58.09l4.55-4.19c-2-2.25-11.41-11.77-27.98-12.05-16.55.28-25.96,9.8-27.96,12.05l4.55,4.19c1.86-2.29,9.2-10.04,23.42-10.17h.01c14.22.13,21.56,7.88,23.42,10.17Z"/>
  <rect x="67.83" y="103.21" width="6.06" height="1.36"/>
  <polygon points="80 104.57 80 103.89 79.32 103.89 79.32 103.21 75.24 103.21 75.24 104.57 80 104.57"/>
  <path d="M64.58,103.21c.09.21.14.44.14.68s-.05.47-.14.68h1.89v-1.36h-1.89Z"/>
  <rect x="67.83" y="114.07" width="6.06" height="1.36"/>
  <polygon points="80 114.82 80 114.07 75.24 114.07 75.24 115.43 79.32 115.43 79.32 114.81 80 114.82"/>
  <path d="M64.58,114.07c.09.21.14.44.14.68s-.05.47-.14.68h1.89v-1.36h-1.89Z"/>
  <polygon points="73.89 115.43 73.89 120.44 75.24 121.21 75.24 115.43 73.89 115.43"/>
  <path d="M73.89,124.45c.21-.09.44-.14.68-.14s.47.05.68.14v-1.68l-1.36-.76v2.44Z"/>
  <path d="M75.24,104.57h-1.36v4.25c.43,0,.68,0,.68,0v1.36s-.26,0-.68,0v3.89h1.36v-9.5Z"/>
  <polygon points="75.24 103.21 75.24 97.56 73.89 98.34 73.89 103.21 75.24 103.21"/>
  <path d="M75.24,94.2c-.21.09-.44.14-.68.14s-.47-.05-.68-.14v2.58l1.36-.78v-1.8Z"/>
  <rect x="73.89" y="103.21" width="1.36" height="1.36"/>
  <rect x="73.89" y="114.07" width="1.36" height="1.36"/>
  <path d="M63.8,76.44l.04,15.97,1.32-1.19v-15.51l-24.3-16.11c0,.52,0,1.07,0,1.63l22.93,15.21Z"/>
  <path d="M38.78,76.36l16.34,7.22c0-.62,0-1.12,0-1.49l-17.08-7.54.74,1.81Z"/>
  <path d="M38.78,76.36l-.74-1.81-.74-1.81-5.15-3.36c.08.59.16,1.18.26,1.78l3.8,2.49.05.11.74,1.81,3.91,9.55,1.67.5-3.79-9.26Z"/>
  <path d="M54.91,96.49l-9.99.1c.43.47.86.92,1.29,1.35l2.83-.07,5.88-1.38Z"/>
  <path d="M104.73,96.44l9.99.1c-.43.47-.86.92-1.29,1.35l-2.83-.07-5.88-1.38Z"/>
  <path d="M21.08,93.17l-7.5-8.05,22.3,3.1c-.09-.15-.18-.3-.27-.45-.19-.33-.36-.68-.54-1.03l-25.09-3.49,10.51,11.28c2.03,2.18,4.88,3.41,7.86,3.41l14.76-.05c-.41-.43-.82-.89-1.23-1.36l-12.94.04c-2.98,0-5.83-1.22-7.86-3.41Z"/>
  <path d="M55.17,90.82l-8.02-2.41-9.25-1.3s.04.09.07.13c.26.46.54.92.81,1.36l16.39,2.29s0-.05,0-.08Z"/>
  <path d="M47.15,88.41l8.02,2.41c0-.44,0-.87,0-1.3l-8.01-1.11Z"/>
  <path d="M34.77,107.98l-7.11-3.71,16.93-3.95c-.38-.36-.76-.73-1.15-1.12l-19.66,4.59,10.86,5.66c2.51,1.31,5.44,1.57,8.15.72l10.65-3.34c-.54-.31-1.06-.62-1.57-.93l-8.95,2.81c-2.7.85-5.63.59-8.15-.72Z"/>
  <path d="M49.03,97.87l-2.39.57c.4.39.79.76,1.18,1.12l7.25-1.71-6.03.02Z"/>
  <path d="M74.95,92.59c0-.21-.17-.39-.39-.39s-.39.17-.39.39c0,.08.03.15.07.21h.63c.04-.06.07-.13.07-.21Z"/>
  <path d="M74.56,92.98c.13,0,.24-.07.31-.17h-.63c.07.1.18.17.31.17Z"/>
  <path d="M73.5,92.59c0-.59.48-1.07,1.07-1.07s1.07.48,1.07,1.07c0,.33-.15.62-.39.81v.79c.63-.27,1.07-.89,1.07-1.61,0-.96-.78-1.74-1.74-1.74s-1.74.78-1.74,1.74c0,.72.44,1.34,1.07,1.61v-.79c-.23-.2-.39-.49-.39-.81Z"/>
  <path d="M75.24,94.2v-.79c-.18.15-.42.25-.68.25s-.49-.1-.68-.25v.79c.21.09.44.14.68.14s.47-.05.68-.14Z"/>
  <path d="M75.63,92.59c0-.59-.48-1.07-1.07-1.07s-1.07.48-1.07,1.07c0,.33.15.62.39.81v-.6h.37c-.04-.06-.07-.13-.07-.21,0-.21.17-.39.39-.39s.39.17.39.39c0,.08-.03.15-.07.21h.36v.6c.23-.2.39-.49.39-.81Z"/>
  <path d="M74.88,92.8c-.07.1-.18.17-.31.17s-.24-.07-.31-.17h-.37v.6c.18.15.42.25.68.25s.49-.1.68-.25v-.6h-.36Z"/>
  <path d="M74.56,126.44c.21,0,.39-.17.39-.39h-.77c0,.21.17.39.39.39Z"/>
  <path d="M74.56,125.67c-.21,0-.39.17-.39.39h.77c0-.21-.17-.39-.39-.39Z"/>
  <path d="M75.63,126.05c0,.59-.48,1.07-1.07,1.07s-1.07-.48-1.07-1.07c0-.33.15-.62.39-.81v-.79c-.63.27-1.07.89-1.07,1.61,0,.96.78,1.75,1.74,1.75s1.74-.78,1.74-1.75c0-.72-.44-1.34-1.07-1.61v.79c.23.2.39.49.39.81Z"/>
  <path d="M73.89,124.45v.79c.18-.15.42-.25.68-.25s.49.1.68.25v-.79c-.21-.09-.44-.14-.68-.14s-.47.05-.68.14Z"/>
  <path d="M73.5,126.05c0,.59.48,1.07,1.07,1.07s1.07-.48,1.07-1.07c0-.33-.15-.62-.39-.81v.81h-.29c0,.21-.17.39-.39.39s-.39-.17-.39-.39h-.29v-.81c-.23.2-.39.49-.39.81Z"/>
  <path d="M74.18,126.05c0-.21.17-.39.39-.39s.39.17.39.39h.29v-.81c-.18-.15-.42-.25-.68-.25s-.49.1-.68.25v.81h.29Z"/>
  <path d="M62.59,103.89c0,.21.17.39.39.39v-.77c-.21,0-.39.17-.39.39Z"/>
  <path d="M63.36,103.89c0-.21-.17-.39-.39-.39v.77c.21,0,.39-.17.39-.39Z"/>
  <path d="M62.98,104.95c-.59,0-1.07-.48-1.07-1.07s.48-1.07,1.07-1.07c.33,0,.62.15.81.39h.79c-.27-.63-.89-1.06-1.61-1.06-.96,0-1.74.78-1.74,1.74s.78,1.75,1.74,1.75c.72,0,1.34-.44,1.61-1.07h-.79c-.2.23-.49.39-.81.39Z"/>
  <path d="M64.58,103.21h-.79c.15.18.25.42.25.68s-.1.49-.25.68h.79c.09-.21.14-.44.14-.68s-.05-.47-.14-.68Z"/>
  <path d="M62.98,102.82c-.59,0-1.07.48-1.07,1.07s.48,1.07,1.07,1.07c.33,0,.62-.15.81-.39h-.81v-.29c-.21,0-.39-.17-.39-.39s.17-.39.39-.39v-.29h.81c-.2-.23-.49-.39-.81-.39Z"/>
  <path d="M62.98,103.5c.21,0,.39.17.39.39s-.17.39-.39.39v.29h.81c.15-.18.25-.42.25-.68s-.1-.49-.25-.68h-.81v.29Z"/>
  <path d="M62.59,114.75c0,.21.17.39.39.39v-.77c-.21,0-.39.17-.39.39Z"/>
  <path d="M63.36,114.75c0-.21-.17-.39-.39-.39v.77c.21,0,.39-.17.39-.39Z"/>
  <path d="M62.98,115.81c-.59,0-1.07-.48-1.07-1.07s.48-1.07,1.07-1.07c.33,0,.62.15.81.39h.79c-.27-.63-.89-1.07-1.61-1.07-.96,0-1.74.78-1.74,1.75s.78,1.75,1.74,1.75c.72,0,1.34-.44,1.61-1.07h-.79c-.2.23-.49.39-.81.39Z"/>
  <path d="M64.58,114.07h-.79c.15.18.25.42.25.68s-.1.49-.25.68h.79c.09-.21.14-.44.14-.68s-.05-.47-.14-.68Z"/>
  <path d="M62.98,113.68c-.59,0-1.07.48-1.07,1.07s.48,1.07,1.07,1.07c.33,0,.62-.15.81-.39h-.81v-.29c-.21,0-.39-.17-.39-.39s.17-.39.39-.39v-.29h.81c-.2-.23-.49-.39-.81-.39Z"/>
  <path d="M62.98,114.36c.21,0,.39.17.39.39s-.17.39-.39.39v.29h.81c.15-.18.25-.42.25-.68s-.1-.49-.25-.68h-.81v.29Z"/>
  <polygon points="80 103.21 80.67 103.21 80.6 95.34 79.85 94.92 79.24 95.27 79.32 103.21 80 103.21"/>
  <rect x="79.32" y="103.21" width=".68" height=".68"/>
  <polygon points="80 115.43 79.32 115.43 79.24 123.45 80 123.88 80.6 123.54 80.67 115.43 80 115.43"/>
  <rect x="79.36" y="114.78" width=".61" height=".68" transform="translate(-36.19 193.71) rotate(-89.47)"/>
  <path d="M80,133.81c-2.27-1.26-15.53-8.63-18.18-10.5-2.87-2.03-4.95-3.49-5.05-6.83-.03-1.05-.07-3.63-.11-7.82l-1.36-.68c.04,4.52.08,7.43.11,8.54.12,4.02,2.67,5.82,5.66,7.92,2.91,2.05,17.96,10.38,18.6,10.73l.33.18v-1.55Z"/>
  <path d="M86.12,110.18c1.16,0,3.63-.02,5.93-.03v-1.36c-2.3.02-4.77.03-5.93.03v1.36Z"/>
  <path d="M73.89,108.82c-1.19,0-3.73-.02-6.06-.03v1.36c2.33.02,4.87.03,6.06.03v-1.36Z"/>
  <path d="M74.57,108.82s-.25,0-.68,0v1.36c.42,0,.68,0,.68,0v-1.36Z"/>
  <path d="M31.29,55.02l6.87,4.58c0-.58,0-1.13-.02-1.64l-6.47-4.32-1.17-.77L0,32.78l6.12,18.62c.76,2.33,2.3,4.32,4.36,5.65l19.67,12.7c-.08-.6-.16-1.18-.23-1.76l-18.3-11.81c-2.06-1.33-3.6-3.32-4.36-5.64l-4.76-14.46,27.56,18.16,1.22.8Z"/>
  <path d="M32.14,73.43c-.11-.54-.2-1.08-.3-1.62-.06-.37-.13-.73-.18-1.1-.09-.6-.18-1.2-.26-1.78-.46-3.51-.63-6.73-.59-9.12.04-2.04.02-2.96.28-4.16l-1.22-.8c-.36,1.46-.38,2.67-.42,4.94-.04,2.18.1,5.04.46,8.19.07.58.14,1.17.23,1.76.07.47.13.94.21,1.42.08.53.18,1.07.28,1.61.62,3.39,1.49,6.88,2.7,10.09l1.65.5c-1.27-3.11-2.19-6.54-2.85-9.92Z"/>
  <path d="M55.16,89.4l-12.59-3.78-1.67-.5-5.9-1.77-1.65-.5-15.85-4.76c-2.71-.81-4.99-2.67-6.34-5.17l-6.2-11.5,25.68,11.34c-.1-.54-.19-1.08-.28-1.61L1.88,58.58l8.35,15.49c1.34,2.49,3.62,4.35,6.34,5.17l17.42,5.23,1.73.52,11.43,3.43,8.01,1.11s0-.09,0-.13Z"/>
  <path d="M56.65,106.44s-1.17-.57-2.26-1.24-2.12-1.29-2.12-1.29c-1.33-.81-3.22-2.22-5.33-4.15-.39-.35-.78-.73-1.18-1.12-.25-.25-.51-.5-.76-.76-.42-.43-.85-.89-1.29-1.35-2.08-2.27-4.21-4.97-6.1-8.07-.27-.45-.55-.9-.81-1.36-.02-.04-.04-.09-.07-.13l-1.66-.23c.18.35.35.7.54,1.03.09.15.18.3.27.45,1.84,3.16,3.92,5.95,6,8.32.41.47.82.92,1.23,1.36.36.39.72.76,1.08,1.12.39.39.77.77,1.15,1.12,2.46,2.33,4.7,4,6.21,4.93l.99.6c.51.31,1.03.62,1.57.93.39.22.78.45,1.19.67l1.36.68c2.56,1.18,5.65,2.08,9.81,2.18v-1.36c-4.25-.1-7.27-1.07-9.82-2.33Z"/>
  <path d="M56.64,104.98c0-.98-.02-1.98-.02-3-.08-9.61-.14-20.38-.14-20.56v-.35s-16.39-11.66-16.39-11.66c.02-1.21.08-5.1.08-8.54,0-.56,0-1.11,0-1.63-.02-1.79-.06-3.27-.14-3.92-.46-3.43-2.23-5.57-5.01-5.57-2.03,0-3.52.64-4.23,2.43l1.17.77c.63-1.78,1.9-1.84,3.05-1.84,3,0,3.49,3.08,3.67,4.4.07.49.1,1.53.12,2.84,0,.51.01,1.06.02,1.64.02,4.21-.08,9.69-.08,9.77v.36s16.4,11.67,16.4,11.67c0,.09,0,.2,0,.32,0,.36,0,.87,0,1.49,0,1.42.02,3.45.04,5.82,0,.04,0,.08,0,.13,0,.42,0,.85,0,1.3,0,.03,0,.05,0,.08.01,1.74.02,3.61.04,5.52l-.3.07-5.88,1.38,6.03-.02h.16c.02,2.34.04,4.72.05,6.96l1.36.77c0-.2,0-.4,0-.6Z"/>
  <path d="M96.2,76.44l-.04,15.97-1.32-1.19v-15.51s24.3-16.11,24.3-16.11c0,.52,0,1.07,0,1.63l-22.93,15.21Z"/>
  <path d="M121.22,76.36l-16.34,7.22c0-.62,0-1.12,0-1.49l17.08-7.54-.74,1.81Z"/>
  <path d="M121.22,76.36l.74-1.81.74-1.81,5.15-3.36c-.08.59-.16,1.18-.26,1.78l-3.8,2.49-.05.11-.74,1.81-3.91,9.55-1.67.5,3.79-9.26Z"/>
  <path d="M138.92,93.17l7.5-8.05-22.3,3.1c.09-.15.18-.3.27-.45.19-.33.36-.68.54-1.03l25.09-3.49-10.51,11.28c-2.03,2.18-4.88,3.41-7.86,3.41l-14.76-.05c.41-.43.82-.89,1.23-1.36l12.94.04c2.98,0,5.83-1.22,7.86-3.41Z"/>
  <path d="M104.83,90.82l8.02-2.41,9.25-1.3s-.04.09-.07.13c-.26.46-.54.92-.81,1.36l-16.39,2.29s0-.05,0-.08Z"/>
  <path d="M112.85,88.41l-8.02,2.41c0-.44,0-.87,0-1.3l8.01-1.11Z"/>
  <path d="M125.23,107.98l7.11-3.71-16.93-3.95c.38-.36.76-.73,1.15-1.12l19.66,4.59-10.86,5.66c-2.51,1.31-5.44,1.57-8.15.72l-10.65-3.34c.54-.31,1.06-.62,1.57-.93l8.95,2.81c2.7.85,5.63.59,8.15-.72Z"/>
  <path d="M110.97,97.87l2.39.57c-.4.39-.79.76-1.18,1.12l-7.25-1.71,6.03.02Z"/>
  <path d="M80,133.81c2.27-1.26,15.53-8.63,18.18-10.5,2.87-2.03,4.95-3.49,5.05-6.83.03-1.05.07-3.63.11-7.82l1.36-.68c-.04,4.52-.08,7.43-.11,8.54-.12,4.02-2.67,5.82-5.66,7.92-2.91,2.05-17.96,10.38-18.6,10.73l-.33.18v-1.55Z"/>
  <path d="M128.71,55.02l-6.87,4.58c0-.58,0-1.13.02-1.64l6.47-4.32,1.17-.77,30.49-20.09-6.12,18.62c-.76,2.33-2.3,4.32-4.36,5.65l-19.67,12.7c.08-.6.16-1.18.23-1.76l18.3-11.81c2.06-1.33,3.6-3.32,4.36-5.64l4.76-14.46-27.56,18.16-1.22.8Z"/>
  <path d="M127.86,73.43c.11-.54.2-1.08.3-1.62.06-.37.13-.73.18-1.1.09-.6.18-1.2.26-1.78.46-3.51.63-6.73.59-9.12-.04-2.04-.02-2.96-.28-4.16l1.22-.8c.36,1.46.38,2.67.42,4.94.04,2.18-.1,5.04-.46,8.19-.07.58-.14,1.17-.23,1.76-.07.47-.13.94-.21,1.42-.08.53-.18,1.07-.28,1.61-.62,3.39-1.49,6.88-2.7,10.09l-1.65.5c1.27-3.11,2.19-6.54,2.85-9.92Z"/>
  <path d="M104.84,89.4l12.59-3.78,1.67-.5,5.9-1.77,1.65-.5,15.85-4.76c2.71-.81,4.99-2.67,6.34-5.17l6.2-11.5-25.68,11.34c.1-.54.19-1.08.28-1.61l28.48-12.58-8.35,15.49c-1.34,2.49-3.62,4.35-6.34,5.17l-17.42,5.23-1.73.52-11.43,3.43-8.01,1.11s0-.09,0-.13Z"/>
  <path d="M103.35,106.44s1.17-.57,2.26-1.24,2.12-1.29,2.12-1.29c1.33-.81,3.22-2.22,5.33-4.15.39-.35.78-.73,1.18-1.12.25-.25.51-.5.76-.76.42-.43.85-.89,1.29-1.35,2.08-2.27,4.21-4.97,6.1-8.07.27-.45.55-.9.81-1.36.02-.04.04-.09.07-.13l1.66-.23c-.18.35-.35.7-.54,1.03-.09.15-.18.3-.27.45-1.84,3.16-3.92,5.95-6,8.32-.41.47-.82.92-1.23,1.36-.36.39-.72.76-1.08,1.12-.39.39-.77.77-1.15,1.12-2.46,2.33-4.7,4-6.21,4.93l-.99.6c-.51.31-1.03.62-1.57.93-.39.22-.78.45-1.19.67l-1.36.68c-2.56,1.18-5.77,2.14-9.93,2.24v-1.36c4.25-.1,7.39-1.13,9.94-2.39Z"/>
  <path d="M103.36,104.98c0-.98.02-1.98.02-3,.08-9.61.14-20.38.14-20.56v-.35s16.39-11.66,16.39-11.66c-.02-1.21-.08-5.1-.08-8.54,0-.56,0-1.11,0-1.63.02-1.79.06-3.27.14-3.92.46-3.43,2.23-5.57,5.01-5.57,2.03,0,3.52.64,4.23,2.43l-1.17.77c-.63-1.78-1.9-1.84-3.05-1.84-3,0-3.49,3.08-3.67,4.4-.07.49-.1,1.53-.12,2.84,0,.51-.01,1.06-.02,1.64-.02,4.21.08,9.69.08,9.77v.36s-16.4,11.67-16.4,11.67c0,.09,0,.2,0,.32,0,.36,0,.87,0,1.49,0,1.42-.02,3.45-.04,5.82,0,.04,0,.08,0,.13,0,.42,0,.85,0,1.3,0,.03,0,.05,0,.08-.01,1.74-.02,3.61-.04,5.52l.3.07,5.88,1.38-6.03-.02h-.16c-.02,2.34-.04,4.72-.05,6.96l-1.36.77c0-.2,0-.4,0-.6Z"/>
  <polygon points="92.05 117.04 86.12 120.41 86.12 121.97 93.41 117.83 93.41 115.43 92.05 115.43 92.05 117.04"/>
  <polygon points="79.24 95.27 79.23 94.07 80.59 94.05 80.6 95.34 84.76 97.69 84.76 96.13 79.84 93.35 75.24 96 75.24 97.56 79.24 95.27"/>
  <polygon points="80.6 123.54 80.59 124.67 79.23 124.65 79.24 123.45 75.24 121.21 75.24 122.77 80 125.44 84.76 122.74 84.76 121.18 80.6 123.54"/>
  <polygon points="92.05 101.82 92.05 103.21 93.41 103.21 93.41 101.03 86.12 96.9 86.12 98.46 92.05 101.82"/>
  <polygon points="67.83 117.04 67.83 115.43 66.47 115.43 66.47 117.83 73.89 122 73.89 120.44 67.83 117.04"/>
  <path d="M67.83,114.07v-3.92c-.29,0-.59,0-.87,0-.17,0-.32-.01-.49-.02v3.94h1.36Z"/>
  <path d="M92.05,104.57v4.22c.33,0,.66,0,.99,0,.13,0,.25-.01.37-.01v-4.2h-1.36Z"/>
  <path d="M92.05,110.15v3.92h1.36v-3.94c-.12,0-.24.01-.36.01-.32,0-.66,0-1,0Z"/>
  <polygon points="67.83 101.82 73.89 98.34 73.89 96.78 66.47 101.03 66.47 103.21 67.83 103.21 67.83 101.82"/>
  <path d="M67.83,108.79v-4.22h-1.36v4.2c.17,0,.33.02.5.02.28,0,.57,0,.86,0Z"/>
  <rect x="66.47" y="103.21" width="1.36" height="1.36"/>
  <rect x="66.47" y="114.07" width="1.36" height="1.36"/>
  <polygon points="75.24 97.56 75.24 96 73.89 96.78 73.89 98.34 75.24 97.56"/>
  <polygon points="73.89 120.44 73.89 122 75.24 122.77 75.24 121.21 73.89 120.44"/>
  <polygon points="80.6 95.34 80.59 94.05 79.23 94.07 79.24 95.27 79.85 94.92 80.6 95.34"/>
  <polygon points="79.24 123.45 79.23 124.65 80.59 124.67 80.6 123.54 80 123.88 79.24 123.45"/>
  <path d="M92.05,108.79v1.36c.34,0,.67,0,1,0,.13,0,.24,0,.36-.01v-1.36c-.13,0-.24.01-.37.01-.32,0-.65,0-.99,0Z"/>
  <path d="M67.83,110.15v-1.36c-.29,0-.58,0-.86,0-.17,0-.33-.01-.5-.02v1.36c.16,0,.32.02.49.02.28,0,.58,0,.87,0Z"/>
  <polygon points="80 103.89 80 104.57 84.76 104.57 84.76 103.21 80.67 103.21 80.68 103.88 80 103.89"/>
  <path d="M95.42,104.57c-.09-.21-.14-.44-.14-.68s.05-.47.14-.68h-2.01v1.36h2.01Z"/>
  <rect x="86.12" y="103.21" width="5.93" height="1.36"/>
  <rect x="80" y="103.21" width=".68" height=".68" transform="translate(-.96 .75) rotate(-.53)"/>
  <rect x="92.05" y="103.21" width="1.36" height="1.36"/>
  <path d="M95.42,115.43c-.09-.21-.14-.44-.14-.68s.05-.47.14-.68h-2.01v1.36h2.01Z"/>
  <rect x="86.12" y="114.07" width="5.93" height="1.36"/>
  <polygon points="80 114.82 80.68 114.83 80.67 115.43 84.76 115.43 84.76 114.07 80 114.07 80 114.82"/>
  <rect x="80" y="114.82" width=".68" height=".6"/>
  <rect x="92.05" y="114.07" width="1.36" height="1.36"/>
  <polygon points="84.76 121.18 86.12 120.41 86.12 115.43 84.76 115.43 84.76 121.18"/>
  <path d="M84.76,124.45c.21-.09.44-.14.68-.14s.47.05.68.14v-2.48l-1.36.77v1.7Z"/>
  <polygon points="86.12 103.21 86.12 98.46 84.76 97.69 84.76 103.21 86.12 103.21"/>
  <path d="M84.76,114.07h1.36v-3.89c-.42,0-.68,0-.68,0v-1.36s.25,0,.68,0v-4.25h-1.36v9.5Z"/>
  <path d="M86.12,94.2c-.21.09-.44.14-.68.14s-.47-.05-.68-.14v1.94l1.36.77v-2.71Z"/>
  <path d="M85.44,110.18s.25,0,.68,0v-1.36c-.43,0-.68,0-.68,0v1.36Z"/>
  <polygon points="86.12 98.46 86.12 96.9 84.76 96.13 84.76 97.69 86.12 98.46"/>
  <polygon points="84.76 121.18 84.76 122.74 86.12 121.97 86.12 120.41 84.76 121.18"/>
  <rect x="84.76" y="103.21" width="1.36" height="1.36"/>
  <rect x="84.76" y="114.07" width="1.36" height="1.36"/>
  <path d="M79.99,55.92c-12.27.11-17.54,8.1-17.75,8.44l-.31.48,6.59,5.98.45-.59c.04-.05,3.92-5.08,10.94-5.08.03,0,.06,0,.09,0h0s.06,0,.09,0c7.02,0,10.9,5.03,10.94,5.08l.45.59,6.59-5.98-.31-.48c-.22-.34-5.49-8.33-17.77-8.44ZM91.64,68.85c-1.3-1.43-5.22-5.05-11.55-5.05h-.09c-6.37-.04-10.33,3.61-11.64,5.05l-4.64-4.21c1.31-1.66,6.44-7.27,16.27-7.36,9.84.09,14.98,5.69,16.29,7.36l-4.64,4.21Z"/>
  <path d="M102.78,59.48l.45.64,6.61-6.08-.38-.49c-.1-.13-10.05-12.72-29.46-13.05-19.38.33-29.34,12.92-29.44,13.05l-.38.49,6.61,6.08.44-.64c.07-.1,7.18-10.05,22.78-10.2,15.6.15,22.71,10.1,22.78,10.2ZM79.99,47.92c-14.22.13-21.56,7.88-23.42,10.17l-4.55-4.19c2-2.25,11.41-11.77,27.96-12.05,16.57.28,25.98,9.8,27.98,12.05l-4.55,4.19c-1.86-2.29-9.2-10.04-23.42-10.17h-.01Z"/>
  <path d="M45.79,48.66c.1-.15,9.98-14.83,34.07-15.24,21.26-.39,34.27,15.14,34.4,15.3l.44.54,6.84-5.88-.4-.51c-.14-.18-14.35-18.13-41.14-18.23-26.79.1-41,18.04-41.14,18.23l-.4.51,6.9,5.93.42-.65ZM40.35,43.2c2.48-2.86,16.05-17.12,39.65-17.21,23.61.09,37.17,14.35,39.65,17.21l-4.81,4.13c-2.49-2.74-14.98-15.28-34.25-15.28-.25,0-.51,0-.77,0v.68s0-.68,0-.68c-21.95.38-32.5,12.34-34.73,15.24l-4.76-4.09Z"/>
  <path d="M81.32,84.39c2.19-1.42,4.42-2.85,4.8-5.82.29-2.21-.59-3.7-1.37-4.56-1.18-1.31-3.05-2.12-4.73-2.07-1.71-.05-3.58.76-4.77,2.07-.78.86-1.66,2.36-1.37,4.56.39,2.97,2.16,4.04,4.36,5.46l1.23-.78c-.18-.12-1-.57-1.17-.7-.79-.6-2.76-1.81-3.06-4.16-.17-1.34.18-2.54,1.03-3.48.9-1,2.3-1.63,3.64-1.63.04,0,.08,0,.12,0,1.34-.02,2.79.6,3.72,1.62.85.94,1.2,2.14,1.03,3.48-.3,2.35-2.21,3.59-4.24,4.9l-1.8,1.14c-3.05,1.87-5.65,3.35-7.95,4.66-3.7,2.1-6.37,3.62-8.48,5.4-1.96,1.66-2.87,2.14-4.56,5.27,0,1.02.02,2.02.02,3,1.79-3.97,3.1-5.28,5.41-7.23,2.01-1.69,4.63-3.19,8.27-5.25,2.46-1.4,5.23-2.98,8.55-5.02l1.32-.86Z"/>
  <path d="M80.37,85.66c3.31,2.05,5.73,3.22,8.18,4.61,3.64,2.07,6.27,3.56,8.27,5.25,2.31,1.95,3.28,3.49,5.07,7.46,0-.98.02-1.98.02-3-1.69-3.13-2.26-3.84-4.22-5.5-2.1-1.78-4.78-3.29-8.48-5.4-2.31-1.31-4.5-2.38-7.55-4.26l-1.3.83Z"/>
  <path d="M85.82,92.59c0-.21-.17-.39-.39-.39s-.39.17-.39.39c0,.08.03.15.07.21h.63c.04-.06.07-.13.07-.21Z"/>
  <path d="M85.44,92.98c.13,0,.24-.07.31-.17h-.63c.07.1.18.17.31.17Z"/>
  <path d="M84.37,92.59c0-.59.48-1.07,1.07-1.07s1.07.48,1.07,1.07c0,.33-.15.62-.39.81v.79c.63-.27,1.07-.89,1.07-1.61,0-.96-.78-1.74-1.75-1.74s-1.74.78-1.74,1.74c0,.72.44,1.34,1.06,1.61v-.79c-.23-.2-.39-.49-.39-.81Z"/>
  <path d="M86.12,94.2v-.79c-.18.15-.42.25-.68.25s-.49-.1-.68-.25v.79c.21.09.44.14.68.14s.47-.05.68-.14Z"/>
  <path d="M86.5,92.59c0-.59-.48-1.07-1.07-1.07s-1.07.48-1.07,1.07c0,.33.15.62.39.81v-.6h.37c-.04-.06-.07-.13-.07-.21,0-.21.17-.39.39-.39s.39.17.39.39c0,.08-.03.15-.07.21h.37v.6c.23-.2.39-.49.39-.81Z"/>
  <path d="M85.75,92.8c-.07.1-.18.17-.31.17s-.24-.07-.31-.17h-.37v.6c.18.15.42.25.68.25s.49-.1.68-.25v-.6h-.37Z"/>
  <path d="M85.44,126.44c.21,0,.39-.17.39-.39h-.77c0,.21.17.39.39.39Z"/>
  <path d="M85.44,125.67c-.21,0-.39.17-.39.39h.77c0-.21-.17-.39-.39-.39Z"/>
  <path d="M86.5,126.05c0,.59-.48,1.07-1.07,1.07s-1.07-.48-1.07-1.07c0-.33.15-.62.39-.81v-.79c-.63.27-1.06.89-1.06,1.61,0,.96.78,1.75,1.74,1.75s1.75-.78,1.75-1.75c0-.72-.44-1.34-1.07-1.61v.79c.23.2.39.49.39.81Z"/>
  <path d="M84.76,124.45v.79c.18-.15.42-.25.68-.25s.49.1.68.25v-.79c-.21-.09-.44-.14-.68-.14s-.47.05-.68.14Z"/>
  <path d="M84.37,126.05c0,.59.48,1.07,1.07,1.07s1.07-.48,1.07-1.07c0-.33-.15-.62-.39-.81v.81h-.29c0,.21-.17.39-.39.39s-.39-.17-.39-.39h-.29v-.81c-.23.2-.39.49-.39.81Z"/>
  <path d="M85.05,126.05c0-.21.17-.39.39-.39s.39.17.39.39h.29v-.81c-.18-.15-.42-.25-.68-.25s-.49.1-.68.25v.81h.29Z"/>
  <path d="M97.41,103.89c0-.21-.17-.39-.39-.39v.77c.21,0,.39-.17.39-.39Z"/>
  <path d="M96.64,103.89c0,.21.17.39.39.39v-.77c-.21,0-.39.17-.39.39Z"/>
  <path d="M97.02,102.82c.59,0,1.07.48,1.07,1.07s-.48,1.07-1.07,1.07c-.33,0-.62-.15-.81-.39h-.79c.27.63.89,1.07,1.61,1.07.96,0,1.75-.78,1.75-1.75s-.78-1.74-1.75-1.74c-.72,0-1.34.44-1.61,1.06h.79c.2-.23.49-.39.81-.39Z"/>
  <path d="M95.42,104.57h.79c-.15-.18-.25-.42-.25-.68s.1-.49.25-.68h-.79c-.09.21-.14.44-.14.68s.05.47.14.68Z"/>
  <path d="M97.02,104.95c.59,0,1.07-.48,1.07-1.07s-.48-1.07-1.07-1.07c-.33,0-.62.15-.81.39h.81v.29c.21,0,.39.17.39.39s-.17.39-.39.39v.29h-.81c.2.23.49.39.81.39Z"/>
  <path d="M97.02,104.27c-.21,0-.39-.17-.39-.39s.17-.39.39-.39v-.29h-.81c-.15.18-.25.42-.25.68s.1.49.25.68h.81v-.29Z"/>
  <path d="M97.41,114.75c0-.21-.17-.39-.39-.39v.77c.21,0,.39-.17.39-.39Z"/>
  <path d="M96.64,114.75c0,.21.17.39.39.39v-.77c-.21,0-.39.17-.39.39Z"/>
  <path d="M97.02,113.68c.59,0,1.07.48,1.07,1.07s-.48,1.07-1.07,1.07c-.33,0-.62-.15-.81-.39h-.79c.27.63.89,1.07,1.61,1.07.96,0,1.75-.78,1.75-1.75s-.78-1.75-1.75-1.75c-.72,0-1.34.44-1.61,1.07h.79c.2-.23.49-.39.81-.39Z"/>
  <path d="M95.42,115.43h.79c-.15-.18-.25-.42-.25-.68s.1-.49.25-.68h-.79c-.09.21-.14.44-.14.68s.05.47.14.68Z"/>
  <path d="M97.02,115.81c.59,0,1.07-.48,1.07-1.07s-.48-1.07-1.07-1.07c-.33,0-.62.15-.81.39h.81v.29c.21,0,.39.17.39.39s-.17.39-.39.39v.29h-.81c.2.23.49.39.81.39Z"/>
  <path d="M97.02,115.13c-.21,0-.39-.17-.39-.39s.17-.39.39-.39v-.29h-.81c-.15.18-.25.42-.25.68s.1.49.25.68h.81v-.29Z"/>
</svg>