<?xml version="1.0" encoding="UTF-8"?>
<svg id="_图层_2" data-name="图层 2" xmlns="http://www.w3.org/2000/svg" viewBox="0 0 612 792">
  <defs>
    <style>
      .cls-1 {
        fill: none;
      }
    </style>
  </defs>
  <path class="cls-1" d="M179.86,410.19c.91,1.94,1.85,3.84,2.86,5.65l29.7,4.13-32.57-9.78Z"/>
  <path class="cls-1" d="M349.92,493.04c.76-1.78,2.52-3.04,4.58-3.04,2.74,0,4.97,2.23,4.97,4.97s-2.23,4.97-4.97,4.97c-2.05,0-3.82-1.25-4.58-3.04h-5.73v6.85l-20.77,11.79v7.05c1.78.76,3.04,2.52,3.04,4.58,0,2.74-2.23,4.97-4.97,4.97s-4.97-2.23-4.97-4.97c0-2.05,1.25-3.82,3.03-4.58v-4.86l-13.54,7.69-13.56-7.62v4.79c1.78.76,3.04,2.52,3.04,4.58,0,2.74-2.23,4.97-4.97,4.97s-4.97-2.23-4.97-4.97c0-2.05,1.25-3.82,3.03-4.58v-6.96l-21.12-11.88v-6.86h-5.38c-.76,1.78-2.52,3.04-4.58,3.04-2.74,0-4.97-2.23-4.97-4.97s2.23-4.97,4.97-4.97c2.05,0,3.82,1.25,4.58,3.04h5.38v-11.24c-11.84-.28-20.66-2.85-27.94-6.21.11,11.93.22,21.34.31,24.32.29,9.51,6.2,13.68,14.38,19.45,7.55,5.32,45.33,26.33,51.79,29.91,6.46-3.58,44.24-24.58,51.69-29.83,8.29-5.84,14.2-10.01,14.49-19.53.09-2.98.2-12.39.31-24.32-7.35,3.39-16.27,5.99-28.29,6.22v11.22h5.73Z"/>
  <path class="cls-1" d="M323.42,493.04h16.9v-11.17c-6.55.04-13.59.08-16.9.09v11.07Z"/>
  <path class="cls-1" d="M353.92,440.23c-5.72-4.83-13.2-9.08-23.57-14.96-7-3.97-14.91-8.47-24.35-14.31-9.44,5.84-17.36,10.34-24.35,14.31-10.36,5.88-17.84,10.14-23.56,14.96-6.59,5.56-13.54,15.61-18.64,26.93.01,1.4.02,2.79.04,4.14,7.26,3.59,15.88,6.34,27.98,6.63v-11.96h-5.38c-.76,1.78-2.52,3.04-4.58,3.04-2.74,0-4.97-2.23-4.97-4.97s2.23-4.97,4.97-4.97c2.05,0,3.82,1.25,4.58,3.03h5.38v-6.2l21.12-12.13v-7.34c-1.78-.76-3.03-2.52-3.03-4.58,0-2.74,2.23-4.97,4.97-4.97s4.97,2.23,4.97,4.97c0,2.05-1.25,3.82-3.04,4.58v5.12l13.11-7.53,13.99,7.92v-5.52c-1.78-.76-3.03-2.52-3.03-4.58,0-2.74,2.23-4.97,4.97-4.97s4.97,2.23,4.97,4.97c0,2.05-1.25,3.82-3.04,4.58v7.71l20.77,11.75v6.2h5.73c.76-1.78,2.52-3.03,4.58-3.03,2.74,0,4.97,2.23,4.97,4.97s-2.23,4.97-4.97,4.97c-2.05,0-3.82-1.25-4.58-3.04h-5.73v11.97c12.28-.24,21-3.02,28.33-6.64.01-1.36.02-2.74.04-4.14-5.1-11.32-12.04-21.37-18.64-26.93Z"/>
  <polygon class="cls-1" points="288.58 448.25 271.33 458.15 271.33 462.11 288.58 462.11 288.58 448.25"/>
  <polygon class="cls-1" points="304.05 462.11 303.84 439.49 292.45 446.03 292.45 462.11 304.05 462.11"/>
  <polygon class="cls-1" points="319.55 462.11 319.55 446.41 307.71 439.7 307.92 462.11 319.55 462.11"/>
  <path class="cls-1" d="M288.58,465.98h-17.25v12.02c6.64.05,13.87.08,17.25.1v-12.12Z"/>
  <path class="cls-1" d="M288.58,481.97c-3.37-.02-10.6-.05-17.25-.1v11.17h17.25v-11.07Z"/>
  <path class="cls-1" d="M186.47,380.47l48.65,21.49c0-.34,0-.66,0-.91l-46.73-33.26.02-1.02c0-.23.29-15.84.23-27.83l-21.4-14.1c-.73,3.43-1.21,7.87-1.32,13.67-.14,6.8.35,15.96,1.67,25.97l16.78,10.83,2.12,5.17Z"/>
  <path class="cls-1" d="M307.52,405.37c5.76-3.73,11.2-7.26,12.07-13.95.49-3.81-.52-7.24-2.93-9.9-2.65-2.92-6.78-4.67-10.6-4.62-.12,0-.23,0-.35,0-3.8,0-7.8,1.79-10.37,4.63-2.41,2.67-3.43,6.09-2.93,9.9.87,6.69,6.31,10.22,12.07,13.95.51.33,1.02.66,1.52.99.51-.33,1.02-.66,1.52-.99Z"/>
  <path class="cls-1" d="M181.24,377.89l-12.93-8.34c.16,1.04.34,2.08.52,3.13l12.54,5.54-.13-.32Z"/>
  <path class="cls-1" d="M183.48,383.38l-13.81-6.1c1.88,9.61,4.54,19.4,8.15,28.25l16.79,5.04-11.14-27.2Z"/>
  <path class="cls-1" d="M162.04,338.42c.13-6.45.69-11.7,1.73-15.87l-78.51-51.73,13.55,41.19c2.18,6.62,6.56,12.3,12.42,16.08l52.14,33.65c-1.05-8.97-1.44-17.12-1.32-23.33Z"/>
  <polygon class="cls-1" points="307.92 496.91 307.71 520.03 319.55 513.3 319.55 496.91 307.92 496.91"/>
  <path class="cls-1" d="M92.25,343.08l17.67,32.77c3.83,7.1,10.32,12.4,18.05,14.72l45.14,13.55c-3.44-9.14-5.96-19.08-7.72-28.73l-73.15-32.31Z"/>
  <path class="cls-1" d="M116.8,410.58l21.36,22.93c5.79,6.21,13.9,9.73,22.39,9.7l36.87-.12c-5.93-6.74-11.87-14.68-17.1-23.69l-63.52-8.83Z"/>
  <path class="cls-1" d="M188.25,326.2c-.5-3.75-1.91-12.52-10.44-12.52-3.28,0-7.32,1.18-9.49,7.24l20.28,13.36c-.06-3.72-.16-6.69-.35-8.08Z"/>
  <path class="cls-1" d="M199.39,412.01l35.87,10.77c-.04-6.75-.08-12.53-.11-16.58l-46.56-20.57,10.8,26.38Z"/>
  <path class="cls-1" d="M323.42,478.1c3.32-.02,10.36-.05,16.9-.09v-12.02h-16.9v12.12Z"/>
  <polygon class="cls-1" points="306 408.69 306 408.69 306 408.68 306 408.69"/>
  <polygon class="cls-1" points="271.33 496.91 271.33 501.51 288.58 511.21 288.58 496.91 271.33 496.91"/>
  <polygon class="cls-1" points="340.32 501.51 340.32 496.91 323.42 496.91 323.42 511.1 340.32 501.51"/>
  <polygon class="cls-1" points="340.32 462.11 340.32 458.16 323.42 448.6 323.42 462.11 340.32 462.11"/>
  <polygon class="cls-1" points="292.45 465.98 292.45 493.04 306 493.04 319.55 493.04 319.55 465.98 306 465.98 292.45 465.98"/>
  <polygon class="cls-1" points="292.45 496.91 292.45 513.38 303.84 519.78 304.05 496.91 292.45 496.91"/>
  <path class="cls-1" d="M305.98,331.29c-28.01.26-42.63,16.22-46.36,20.96l13.22,11.99c3.73-4.1,15.01-14.5,33.16-14.39h.27c18.01,0,29.17,10.31,32.89,14.39l13.22-11.99c-3.72-4.74-18.35-20.7-46.39-20.96Z"/>
  <path class="cls-1" d="M206.27,446.94c.73.74,1.45,1.45,2.17,2.15l9.34-2.19-11.51.04Z"/>
  <path class="cls-1" d="M224.98,467.4c-4.32-2.65-10.68-7.41-17.7-14.06l-50.39,11.8,20.24,10.55c7.17,3.74,15.52,4.47,23.23,2.05l27.43-8.63c-.43-.26-.88-.53-1.3-.79l-1.51-.93Z"/>
  <path class="cls-1" d="M234.97,446.85l-23.16,5.43c6.02,5.5,11.41,9.5,15.19,11.82l1.52.93c1.38.85,2.78,1.7,4.19,2.54l2.87-.9c-.05-6.38-.1-13.14-.15-19.82h-.45Z"/>
  <path class="cls-1" d="M235.39,442.78c-.04-5.46-.08-10.78-.11-15.73l-50.06-6.96c5.41,8.84,11.45,16.54,17.38,22.99l31.92-.1.86-.2Z"/>
  <path class="cls-1" d="M305.52,259.43c.73-.01,1.46-.02,2.19-.02,54.88,0,90.45,35.74,97.56,43.54l13.69-11.76c-7.07-8.14-45.71-48.76-112.96-49.01-67.23.25-105.88,40.87-112.94,49.01l13.55,11.65c6.35-8.24,36.39-42.32,98.93-43.4Z"/>
  <path class="cls-1" d="M372.72,333.57l12.96-11.93c-5.69-6.42-32.5-33.52-79.71-34.33-47.15.81-73.95,27.91-79.64,34.33l12.96,11.93c5.3-6.52,26.2-28.59,66.7-28.96h.04c40.51.38,61.4,22.44,66.7,28.96Z"/>
  <rect x="271.33" y="462.11" width="17.25" height="3.87"/>
  <polygon points="306 465.98 306 464.04 304.07 464.06 304.05 462.11 292.45 462.11 292.45 465.98 306 465.98"/>
  <path d="M262.09,462.11c.25.6.39,1.25.39,1.94s-.14,1.34-.39,1.94h5.38v-3.87h-5.38Z"/>
  <rect x="271.33" y="493.04" width="17.25" height="3.87"/>
  <polygon points="306 495.19 306 493.04 292.45 493.04 292.45 496.91 304.05 496.91 304.07 495.17 306 495.19"/>
  <path d="M262.09,493.04c.25.6.39,1.25.39,1.94s-.14,1.34-.39,1.94h5.38v-3.87h-5.38Z"/>
  <polygon points="288.58 496.91 288.58 511.21 292.45 513.38 292.45 496.91 288.58 496.91"/>
  <path d="M288.58,522.61c.59-.25,1.25-.39,1.93-.39s1.34.14,1.93.39v-4.79l-3.87-2.18v6.96Z"/>
  <path d="M292.45,465.98h-3.87v12.12c1.22,0,1.94,0,1.94,0l-.02,3.87s-.72,0-1.93,0v11.07h3.87v-27.06Z"/>
  <polygon points="292.45 462.11 292.45 446.03 288.58 448.25 288.58 462.11 292.45 462.11"/>
  <path d="M292.45,436.44c-.59.25-1.25.39-1.93.39s-1.34-.14-1.93-.39v7.34l3.87-2.22v-5.12Z"/>
  <rect x="288.58" y="462.11" width="3.87" height="3.87"/>
  <rect x="288.58" y="493.04" width="3.87" height="3.87"/>
  <path d="M259.84,385.85l.1,45.5,3.77-3.39v-44.18l-69.21-45.88c.01,1.49.02,3.05.02,4.65l65.32,43.32Z"/>
  <path d="M188.59,385.64l46.56,20.57c-.01-1.77-.02-3.2-.03-4.24l-48.65-21.49,2.11,5.16Z"/>
  <path d="M188.59,385.64l-2.11-5.16-2.12-5.17-14.68-9.57c.22,1.67.46,3.36.73,5.08l10.83,7.08.13.32,2.11,5.16,11.14,27.2,4.77,1.43-10.8-26.38Z"/>
  <path d="M234.53,442.98l-28.46.27c1.23,1.34,2.45,2.63,3.66,3.86l8.05-.21,16.75-3.92Z"/>
  <path d="M376.44,442.84l28.46.27c-1.23,1.34-2.45,2.63-3.66,3.86l-8.05-.21-16.75-3.92Z"/>
  <path d="M138.17,433.51l-21.36-22.93,63.52,8.83c-.25-.44-.52-.85-.77-1.29-.54-.95-1.04-1.95-1.54-2.93l-71.46-9.93,29.94,32.14c5.79,6.21,13.9,9.73,22.39,9.7l42.05-.13c-1.16-1.24-2.33-2.53-3.5-3.86l-36.87.12c-8.49.03-16.6-3.49-22.39-9.7Z"/>
  <path d="M235.28,426.83l-22.85-6.86-26.34-3.7c.07.12.13.25.19.37.75,1.32,1.53,2.61,2.31,3.89l46.69,6.53c0-.07,0-.15,0-.22Z"/>
  <path d="M212.43,419.97l22.85,6.86c0-1.26-.02-2.49-.02-3.69l-22.83-3.17Z"/>
  <path d="M177.15,475.71l-20.26-10.56,48.24-11.26c-1.08-1.02-2.18-2.09-3.28-3.2l-55.99,13.08,30.92,16.12c7.16,3.73,15.5,4.47,23.21,2.06l30.33-9.52c-1.53-.88-3.02-1.77-4.46-2.65l-25.51,8c-7.7,2.41-16.05,1.67-23.2-2.06Z"/>
  <path d="M217.78,446.91l-6.82,1.64c1.14,1.11,2.26,2.18,3.37,3.18l20.64-4.88-17.19.05Z"/>
  <path d="M291.62,431.87c0-.61-.49-1.1-1.1-1.1s-1.1.49-1.1,1.1c0,.23.09.43.21.6h1.79c.12-.18.21-.38.21-.6Z"/>
  <path d="M290.52,432.97c.38,0,.7-.2.89-.5h-1.79c.2.29.52.5.89.5Z"/>
  <path d="M287.48,431.87c0-1.68,1.36-3.04,3.04-3.04s3.04,1.36,3.04,3.04c0,.94-.43,1.76-1.1,2.32v2.26c1.78-.76,3.04-2.52,3.04-4.58,0-2.74-2.23-4.97-4.97-4.97s-4.97,2.23-4.97,4.97c0,2.05,1.25,3.82,3.03,4.58v-2.26c-.67-.56-1.1-1.38-1.1-2.32Z"/>
  <path d="M292.45,436.44v-2.26c-.53.44-1.2.71-1.93.71s-1.41-.28-1.93-.71v2.26c.59.25,1.25.39,1.93.39s1.34-.14,1.93-.39Z"/>
  <path d="M293.55,431.87c0-1.68-1.36-3.04-3.04-3.04s-3.04,1.36-3.04,3.04c0,.94.43,1.76,1.1,2.32v-1.72h1.04c-.12-.18-.21-.38-.21-.6,0-.61.49-1.1,1.1-1.1s1.1.49,1.1,1.1c0,.23-.09.43-.21.6h1.04v1.72c.67-.56,1.1-1.38,1.1-2.32Z"/>
  <path d="M291.41,432.47c-.2.29-.52.5-.89.5s-.7-.2-.89-.5h-1.04v1.72c.53.44,1.2.71,1.93.71s1.41-.27,1.93-.71v-1.72h-1.04Z"/>
  <path d="M290.52,528.29c.61,0,1.1-.49,1.1-1.1h-2.2c0,.61.49,1.1,1.1,1.1Z"/>
  <path d="M290.52,526.09c-.61,0-1.1.49-1.1,1.1h2.2c0-.61-.49-1.1-1.1-1.1Z"/>
  <path d="M293.55,527.19c0,1.68-1.36,3.04-3.04,3.04s-3.04-1.36-3.04-3.04c0-.94.43-1.76,1.1-2.32v-2.26c-1.78.76-3.03,2.52-3.03,4.58,0,2.74,2.23,4.97,4.97,4.97s4.97-2.23,4.97-4.97c0-2.05-1.25-3.82-3.04-4.58v2.26c.67.56,1.1,1.38,1.1,2.32Z"/>
  <path d="M288.58,522.61v2.26c.53-.44,1.2-.71,1.93-.71s1.41.27,1.93.71v-2.26c-.59-.25-1.25-.39-1.93-.39s-1.34.14-1.93.39Z"/>
  <path d="M287.48,527.19c0,1.68,1.36,3.04,3.04,3.04s3.04-1.36,3.04-3.04c0-.94-.43-1.76-1.1-2.32v2.32h-.83c0,.61-.49,1.1-1.1,1.1s-1.1-.49-1.1-1.1h-.83v-2.32c-.67.56-1.1,1.38-1.1,2.32Z"/>
  <path d="M289.42,527.19c0-.61.49-1.1,1.1-1.1s1.1.49,1.1,1.1h.83v-2.32c-.53-.44-1.2-.71-1.93-.71s-1.41.28-1.93.71v2.32h.83Z"/>
  <path d="M256.41,464.04c0,.61.49,1.1,1.1,1.1v-2.2c-.61,0-1.1.49-1.1,1.1Z"/>
  <path d="M258.61,464.04c0-.61-.49-1.1-1.1-1.1v2.2c.61,0,1.1-.49,1.1-1.1Z"/>
  <path d="M257.51,467.08c-1.68,0-3.04-1.36-3.04-3.04s1.36-3.04,3.04-3.04c.94,0,1.76.43,2.32,1.1h2.26c-.76-1.78-2.52-3.03-4.58-3.03-2.74,0-4.97,2.23-4.97,4.97s2.23,4.97,4.97,4.97c2.05,0,3.82-1.25,4.58-3.04h-2.26c-.56.67-1.38,1.1-2.32,1.1Z"/>
  <path d="M262.09,462.11h-2.26c.44.53.72,1.2.72,1.94s-.28,1.41-.71,1.93h2.26c.25-.6.39-1.25.39-1.94s-.14-1.34-.39-1.94Z"/>
  <path d="M257.51,461.01c-1.68,0-3.04,1.36-3.04,3.04s1.36,3.04,3.04,3.04c.94,0,1.76-.43,2.32-1.1h-2.32v-.84c-.61,0-1.1-.49-1.1-1.1s.49-1.1,1.1-1.1v-.84h2.32c-.56-.67-1.38-1.1-2.32-1.1Z"/>
  <path d="M257.51,462.94c.61,0,1.1.49,1.1,1.1s-.49,1.1-1.1,1.1v.84h2.32c.44-.53.71-1.2.71-1.93s-.28-1.41-.72-1.94h-2.32v.84Z"/>
  <path d="M256.41,494.98c0,.61.49,1.1,1.1,1.1v-2.2c-.61,0-1.1.49-1.1,1.1Z"/>
  <path d="M258.61,494.98c0-.61-.49-1.1-1.1-1.1v2.2c.61,0,1.1-.49,1.1-1.1Z"/>
  <path d="M257.51,498.01c-1.68,0-3.04-1.36-3.04-3.04s1.36-3.04,3.04-3.04c.94,0,1.76.43,2.32,1.1h2.26c-.76-1.78-2.52-3.04-4.58-3.04-2.74,0-4.97,2.23-4.97,4.97s2.23,4.97,4.97,4.97c2.05,0,3.82-1.25,4.58-3.04h-2.26c-.56.67-1.38,1.1-2.32,1.1Z"/>
  <path d="M262.09,493.04h-2.26c.44.53.71,1.2.71,1.94s-.28,1.41-.72,1.94h2.26c.25-.6.39-1.25.39-1.94s-.14-1.34-.39-1.94Z"/>
  <path d="M257.51,491.94c-1.68,0-3.04,1.36-3.04,3.04s1.36,3.04,3.04,3.04c.94,0,1.76-.43,2.32-1.1h-2.32v-.84c-.61,0-1.1-.49-1.1-1.1s.49-1.1,1.1-1.1v-.84h2.32c-.56-.67-1.38-1.1-2.32-1.1Z"/>
  <path d="M257.51,493.88c.61,0,1.1.49,1.1,1.1s-.49,1.1-1.1,1.1v.84h2.32c.44-.53.72-1.2.72-1.94s-.28-1.41-.71-1.94h-2.32v.84Z"/>
  <polygon points="306 462.11 307.92 462.11 307.71 439.7 305.57 438.49 303.84 439.49 304.05 462.11 306 462.11"/>
  <polygon points="306 464.04 306 462.11 304.05 462.11 304.07 464.06 306 464.04"/>
  <polygon points="306 496.91 304.05 496.91 303.84 519.78 306 521 307.71 520.03 307.92 496.91 306 496.91"/>
  <polygon points="304.07 495.17 304.05 496.91 306 496.91 306 495.19 304.07 495.17"/>
  <path d="M306,549.28c-6.46-3.58-44.24-24.59-51.79-29.91-8.18-5.77-14.1-9.94-14.38-19.45-.09-2.98-.2-10.34-.31-22.28l-3.89-1.93c.11,12.89.23,21.16.33,24.32.35,11.45,7.61,16.57,16.13,22.57,8.28,5.84,51.15,29.57,52.97,30.58l.94.52v-4.42Z"/>
  <path d="M323.42,481.97c3.31-.02,10.35-.05,16.9-.09v-3.87c-6.54.04-13.58.08-16.9.09v3.87Z"/>
  <path d="M288.58,478.1c-3.38-.02-10.61-.05-17.25-.1v3.87c6.65.05,13.88.08,17.25.1v-3.87Z"/>
  <path d="M290.52,478.11s-.73,0-1.94,0v3.87c1.21,0,1.93,0,1.93,0l.02-3.87Z"/>
  <path d="M167.24,324.84l19.56,13.05c0-1.64-.02-3.21-.04-4.66l-18.44-12.31-3.34-2.2-86.86-57.23,17.45,53.05c2.18,6.62,6.56,12.3,12.42,16.08l56.03,36.16c-.24-1.7-.45-3.37-.65-5.02l-52.14-33.65c-5.86-3.78-10.24-9.46-12.42-16.08l-13.55-41.19,78.51,51.73,3.47,2.28Z"/>
  <path d="M169.68,377.28c-.3-1.54-.58-3.08-.84-4.6-.18-1.05-.36-2.09-.52-3.13-.27-1.71-.51-3.41-.73-5.08-1.32-10.01-1.81-19.17-1.67-25.97.12-5.8.07-8.42.8-11.85l-3.47-2.28c-1.03,4.17-1.07,7.6-1.2,14.06-.13,6.21.27,14.36,1.32,23.33.19,1.65.41,3.32.65,5.02.19,1.34.38,2.68.6,4.04.24,1.51.51,3.05.79,4.58,1.76,9.65,4.24,19.59,7.68,28.73l4.71,1.42c-3.61-8.85-6.23-18.64-8.11-28.25Z"/>
  <path d="M235.25,422.78l-35.87-10.77-4.77-1.43-16.79-5.04-4.71-1.42-45.14-13.55c-7.73-2.32-14.22-7.61-18.05-14.72l-17.67-32.77,73.15,32.31c-.28-1.54-.55-3.07-.79-4.58l-81.12-35.83,23.8,44.12c3.83,7.1,10.32,12.4,18.05,14.72l49.61,14.9,4.92,1.48,32.57,9.78,22.83,3.17c0-.12,0-.24,0-.36Z"/>
  <path d="M239.48,471.3s-3.32-1.63-6.45-3.54-6.03-3.67-6.03-3.67c-3.78-2.31-9.17-6.32-15.19-11.82-1.1-1.01-2.23-2.07-3.37-3.18-.72-.7-1.44-1.41-2.17-2.15-1.21-1.23-2.43-2.52-3.66-3.86-5.93-6.45-11.98-14.15-17.38-22.99-.78-1.28-1.55-2.56-2.31-3.89-.07-.12-.13-.25-.19-.37l-4.72-.66c.51.99,1.01,1.99,1.54,2.93.25.44.51.86.77,1.29,5.24,9.01,11.17,16.94,17.1,23.69,1.17,1.33,2.34,2.62,3.5,3.86,1.03,1.1,2.06,2.15,3.07,3.18,1.11,1.11,2.2,2.18,3.28,3.2,7.02,6.65,13.38,11.41,17.7,14.06l2.81,1.72c1.44.89,2.93,1.77,4.46,2.65,1.11.64,2.21,1.28,3.38,1.9l3.89,1.93c7.28,3.36,16.1,5.93,27.94,6.21v-3.87c-12.1-.29-20.72-3.04-27.98-6.63Z"/>
  <path d="M239.45,467.16c-.02-2.79-.05-5.64-.07-8.54-.21-27.38-.4-58.06-.4-58.58v-.99s-46.69-33.22-46.69-33.22c.06-3.43.23-14.53.22-24.33,0-1.6,0-3.16-.02-4.65-.05-5.09-.16-9.32-.41-11.16-1.31-9.77-6.36-15.88-14.28-15.88-5.79,0-10.03,1.83-12.04,6.93l3.34,2.2c1.78-5.07,5.42-5.25,8.7-5.25,8.53,0,9.94,8.77,10.44,12.52.19,1.39.29,4.36.35,8.08.02,1.45.04,3.02.04,4.66.05,11.99-.23,27.6-.23,27.83l-.02,1.02,46.73,33.26c0,.25,0,.57,0,.91,0,1.04.02,2.47.03,4.24.03,4.05.06,9.83.11,16.58,0,.12,0,.24,0,.36,0,1.2.02,2.43.02,3.69,0,.07,0,.15,0,.22.03,4.95.07,10.27.11,15.73l-.86.2-16.75,3.92,17.19-.05h.45c.05,6.68.1,13.44.15,19.82l3.89,2.2c0-.56,0-1.13-.01-1.7Z"/>
  <path d="M352.16,385.85l-.1,45.5-3.77-3.39v-44.18s69.21-45.88,69.21-45.88c-.01,1.49-.02,3.05-.02,4.65l-65.32,43.32Z"/>
  <path d="M423.41,385.64l-46.56,20.57c.01-1.77.02-3.2.03-4.24l48.65-21.49-2.11,5.16Z"/>
  <path d="M423.41,385.64l2.11-5.16,2.12-5.17,14.68-9.57c-.22,1.67-.46,3.36-.73,5.08l-10.83,7.08-.13.32-2.11,5.16-11.14,27.2-4.77,1.43,10.8-26.38Z"/>
  <path d="M473.83,433.51l21.36-22.93-63.52,8.83c.25-.44.52-.85.77-1.29.54-.95,1.04-1.95,1.54-2.93l71.46-9.93-29.94,32.14c-5.79,6.21-13.9,9.73-22.39,9.7l-42.05-.13c1.16-1.24,2.33-2.53,3.5-3.86l36.87.12c8.49.03,16.6-3.49,22.39-9.7Z"/>
  <path d="M376.72,426.83l22.85-6.86,26.34-3.7c-.07.12-.13.25-.19.37-.75,1.32-1.53,2.61-2.31,3.89l-46.69,6.53c0-.07,0-.15,0-.22Z"/>
  <path d="M399.57,419.97l-22.85,6.86c0-1.26.02-2.49.02-3.69l22.83-3.17Z"/>
  <path d="M434.85,475.71l20.26-10.56-48.24-11.26c1.08-1.02,2.18-2.09,3.28-3.2l55.99,13.08-30.92,16.12c-7.16,3.73-15.5,4.47-23.21,2.06l-30.33-9.52c1.53-.88,3.02-1.77,4.46-2.65l25.51,8c7.7,2.41,16.05,1.67,23.2-2.06Z"/>
  <path d="M394.22,446.91l6.82,1.64c-1.14,1.11-2.26,2.18-3.37,3.18l-20.64-4.88,17.19.05Z"/>
  <path d="M306,549.28c6.46-3.58,44.24-24.59,51.79-29.91,8.18-5.77,14.1-9.94,14.38-19.45.09-2.98.2-10.34.31-22.28l3.89-1.93c-.11,12.89-.23,21.16-.33,24.32-.35,11.45-7.61,16.57-16.13,22.57-8.28,5.84-51.15,29.57-52.97,30.58l-.94.52v-4.42Z"/>
  <path d="M444.76,324.84l-19.56,13.05c0-1.64.02-3.21.04-4.66l18.44-12.31,3.34-2.2,86.86-57.23-17.45,53.05c-2.18,6.62-6.56,12.3-12.42,16.08l-56.03,36.16c.24-1.7.45-3.37.65-5.02l52.14-33.65c5.86-3.78,10.24-9.46,12.42-16.08l13.55-41.19-78.51,51.73-3.47,2.28Z"/>
  <path d="M442.32,377.28c.3-1.54.58-3.08.84-4.6.18-1.05.36-2.09.52-3.13.27-1.71.51-3.41.73-5.08,1.32-10.01,1.81-19.17,1.67-25.97-.12-5.8-.07-8.42-.8-11.85l3.47-2.28c1.03,4.17,1.07,7.6,1.2,14.06.13,6.21-.27,14.36-1.32,23.33-.19,1.65-.41,3.32-.65,5.02-.19,1.34-.38,2.68-.6,4.04-.24,1.51-.51,3.05-.79,4.58-1.76,9.65-4.24,19.59-7.68,28.73l-4.71,1.42c3.61-8.85,6.23-18.64,8.11-28.25Z"/>
  <path d="M376.75,422.78l35.87-10.77,4.77-1.43,16.79-5.04,4.71-1.42,45.14-13.55c7.73-2.32,14.22-7.61,18.05-14.72l17.67-32.77-73.15,32.31c.28-1.54.55-3.07.79-4.58l81.12-35.83-23.8,44.12c-3.83,7.1-10.32,12.4-18.05,14.72l-49.61,14.9-4.92,1.48-32.57,9.78-22.83,3.17c0-.12,0-.24,0-.36Z"/>
  <path d="M372.52,471.3s3.32-1.63,6.45-3.54,6.03-3.67,6.03-3.67c3.78-2.31,9.17-6.32,15.19-11.82,1.1-1.01,2.23-2.07,3.37-3.18.72-.7,1.44-1.41,2.17-2.15,1.21-1.23,2.43-2.52,3.66-3.86,5.93-6.45,11.98-14.15,17.38-22.99.78-1.28,1.55-2.56,2.31-3.89.07-.12.13-.25.19-.37l4.72-.66c-.51.99-1.01,1.99-1.54,2.93-.25.44-.51.86-.77,1.29-5.24,9.01-11.17,16.94-17.1,23.69-1.17,1.33-2.34,2.62-3.5,3.86-1.03,1.1-2.06,2.15-3.07,3.18-1.11,1.11-2.2,2.18-3.28,3.2-7.02,6.65-13.38,11.41-17.7,14.06l-2.81,1.72c-1.44.89-2.93,1.77-4.46,2.65-1.11.64-2.21,1.28-3.38,1.9l-3.89,1.93c-7.28,3.36-16.44,6.1-28.29,6.38v-3.87c12.1-.29,21.06-3.21,28.33-6.8Z"/>
  <path d="M372.55,467.16c.02-2.79.05-5.64.07-8.54.21-27.38.4-58.06.4-58.58v-.99s46.69-33.22,46.69-33.22c-.06-3.43-.23-14.53-.22-24.33,0-1.6,0-3.16.02-4.65.05-5.09.16-9.32.41-11.16,1.31-9.77,6.36-15.88,14.28-15.88,5.79,0,10.03,1.83,12.04,6.93l-3.34,2.2c-1.78-5.07-5.42-5.25-8.7-5.25-8.53,0-9.94,8.77-10.44,12.52-.19,1.39-.29,4.36-.35,8.08-.02,1.45-.04,3.02-.04,4.66-.05,11.99.23,27.6.23,27.83l.02,1.02-46.73,33.26c0,.25,0,.57,0,.91,0,1.04-.02,2.47-.03,4.24-.03,4.05-.06,9.83-.11,16.58,0,.12,0,.24,0,.36,0,1.2-.02,2.43-.02,3.69,0,.07,0,.15,0,.22-.03,4.95-.07,10.27-.11,15.73l.86.2,16.75,3.92-17.19-.05h-.45c-.05,6.68-.1,13.44-.15,19.82l-3.89,2.2c0-.56,0-1.13.01-1.7Z"/>
  <polygon points="340.32 501.51 323.42 511.1 323.42 515.56 344.19 503.77 344.19 496.91 340.32 496.91 340.32 501.51"/>
  <polygon points="303.84 439.49 303.81 436.07 307.68 436.03 307.71 439.7 319.55 446.41 319.55 441.96 305.56 434.04 292.45 441.56 292.45 446.03 303.84 439.49"/>
  <polygon points="307.71 520.03 307.68 523.24 303.81 523.2 303.84 519.78 292.45 513.38 292.45 517.82 306.01 525.44 319.55 517.75 319.55 513.3 307.71 520.03"/>
  <polygon points="340.32 458.16 340.32 462.11 344.19 462.11 344.19 455.91 323.42 444.15 323.42 448.6 340.32 458.16"/>
  <polygon points="271.33 501.51 271.33 496.91 267.46 496.91 267.46 503.77 288.58 515.65 288.58 511.21 271.33 501.51"/>
  <path d="M271.33,493.04v-11.17c-.84,0-1.67-.01-2.48-.02-.48,0-.92-.04-1.39-.05v11.24h3.87Z"/>
  <path d="M340.32,465.98v12.02c.95,0,1.89-.01,2.81-.02.37,0,.7-.03,1.06-.04v-11.97h-3.87Z"/>
  <path d="M340.32,481.87v11.17h3.87v-11.22c-.35,0-.68.03-1.03.03-.92,0-1.88.01-2.84.02Z"/>
  <polygon points="271.33 458.15 288.58 448.25 288.58 443.79 267.46 455.91 267.46 462.11 271.33 462.11 271.33 458.15"/>
  <path d="M271.33,478v-12.02h-3.87v11.96c.48.01.93.05,1.42.05.8,0,1.62.01,2.45.02Z"/>
  <rect x="267.46" y="462.11" width="3.87" height="3.87"/>
  <rect x="267.46" y="493.04" width="3.87" height="3.87"/>
  <polygon points="292.45 446.03 292.45 441.56 288.58 443.79 288.58 448.25 292.45 446.03"/>
  <polygon points="288.58 511.21 288.58 515.65 292.45 517.82 292.45 513.38 288.58 511.21"/>
  <polygon points="307.71 439.7 307.68 436.03 303.81 436.07 303.84 439.49 305.57 438.49 307.71 439.7"/>
  <polygon points="303.84 519.78 303.81 523.2 307.68 523.24 307.71 520.03 306 521 303.84 519.78"/>
  <path d="M340.32,478v3.87c.96,0,1.91-.01,2.84-.02.36,0,.68-.03,1.03-.03v-3.87c-.36,0-.7.03-1.06.04-.91,0-1.86.01-2.81.02Z"/>
  <path d="M271.33,481.87v-3.87c-.83,0-1.65-.01-2.45-.02-.49,0-.94-.04-1.42-.05v3.87c.47.01.91.04,1.39.05.81,0,1.64.01,2.48.02Z"/>
  <polygon points="306 464.04 306 465.98 319.55 465.98 319.55 462.11 307.92 462.11 307.94 464.02 306 464.04"/>
  <path d="M349.92,465.98c-.25-.6-.39-1.25-.39-1.94s.14-1.34.39-1.94h-5.73v3.87h5.73Z"/>
  <rect x="323.42" y="462.11" width="16.9" height="3.87"/>
  <polygon points="307.94 464.02 307.92 462.11 306 462.11 306 464.04 307.94 464.02"/>
  <rect x="340.32" y="462.11" width="3.87" height="3.87"/>
  <path d="M349.92,496.91c-.25-.6-.39-1.25-.39-1.94s.14-1.34.39-1.94h-5.73v3.87h5.73Z"/>
  <rect x="323.42" y="493.04" width="16.9" height="3.87"/>
  <polygon points="306 495.19 307.94 495.21 307.92 496.91 319.55 496.91 319.55 493.04 306 493.04 306 495.19"/>
  <polygon points="306 495.19 306 496.91 307.92 496.91 307.94 495.21 306 495.19"/>
  <rect x="340.32" y="493.04" width="3.87" height="3.87"/>
  <polygon points="319.55 513.3 323.42 511.1 323.42 496.91 319.55 496.91 319.55 513.3"/>
  <path d="M319.55,522.61c.6-.25,1.25-.39,1.94-.39s1.34.14,1.94.39v-7.05l-3.87,2.2v4.86Z"/>
  <polygon points="323.42 462.11 323.42 448.6 319.55 446.41 319.55 462.11 323.42 462.11"/>
  <path d="M319.55,493.04h3.87v-11.07c-1.21,0-1.93,0-1.93,0l-.02-3.87s.73,0,1.94,0v-12.12h-3.87v27.06Z"/>
  <path d="M323.42,436.44c-.6.25-1.25.39-1.94.39s-1.34-.14-1.94-.39v5.52l3.87,2.19v-7.71Z"/>
  <path d="M321.5,481.98s.72,0,1.93,0v-3.87c-1.22,0-1.94,0-1.94,0l.02,3.87Z"/>
  <polygon points="323.42 448.6 323.42 444.15 319.55 441.96 319.55 446.41 323.42 448.6"/>
  <polygon points="319.55 513.3 319.55 517.75 323.42 515.56 323.42 511.1 319.55 513.3"/>
  <rect x="319.55" y="462.11" width="3.87" height="3.87"/>
  <rect x="319.55" y="493.04" width="3.87" height="3.87"/>
  <path d="M305.98,327.42c-34.94.33-49.95,23.08-50.58,24.05l-.88,1.38,18.77,17.02,1.28-1.69c.11-.14,11.17-14.46,31.17-14.46.08,0,.17,0,.25,0h.02c.08,0,.16,0,.25,0,20,0,31.06,14.32,31.17,14.46l1.28,1.69,18.77-17.03-.89-1.38c-.62-.97-15.63-23.72-50.61-24.05ZM339.16,364.24c-3.72-4.08-14.88-14.39-32.89-14.39h-.27c-18.15-.12-29.42,10.28-33.16,14.39l-13.22-11.99c3.72-4.74,18.34-20.7,46.36-20.96,28.04.26,42.67,16.22,46.39,20.96l-13.22,11.99Z"/>
  <path d="M370.88,337.54l1.27,1.82,18.82-17.33-1.09-1.4c-.28-.36-28.64-36.23-83.92-37.18-55.21.95-83.57,36.82-83.85,37.18l-1.09,1.4,18.82,17.33,1.27-1.82c.2-.29,20.45-28.64,64.88-29.06,44.43.42,64.68,28.77,64.88,29.06ZM305.98,304.61c-40.51.38-61.4,22.44-66.7,28.96l-12.96-11.93c5.69-6.42,32.5-33.52,79.64-34.33,47.2.81,74.01,27.91,79.71,34.33l-12.96,11.93c-5.3-6.52-26.2-28.59-66.7-28.96h-.04Z"/>
  <path d="M208.54,306.72c.28-.42,28.42-42.24,97.05-43.42,60.56-1.1,97.63,43.14,97.99,43.59l1.26,1.53,19.48-16.74-1.13-1.45c-.4-.52-40.87-51.63-117.2-51.92-76.32.28-116.78,51.4-117.18,51.92l-1.13,1.45,19.65,16.89,1.21-1.85ZM193.05,291.18c7.07-8.14,45.71-48.76,112.94-49.01,67.25.25,105.89,40.87,112.96,49.01l-13.69,11.76c-7.1-7.8-42.68-43.54-97.56-43.54-.72,0-1.46,0-2.19.02l.03,1.93-.03-1.93c-62.53,1.08-92.57,35.16-98.93,43.4l-13.55-11.65Z"/>
  <path d="M309.75,408.5c6.25-4.05,12.58-8.11,13.68-16.58.81-6.28-1.68-10.53-3.9-12.99-3.37-3.73-8.68-6.04-13.47-5.89-4.88-.14-10.21,2.17-13.58,5.89-2.23,2.46-4.72,6.72-3.9,12.99,1.1,8.47,6.16,11.51,12.41,15.56l3.5-2.22c-.51-.33-2.86-1.62-3.35-1.98-2.26-1.7-7.86-5.16-8.73-11.85-.49-3.81.52-7.24,2.93-9.9,2.57-2.84,6.56-4.63,10.37-4.63.12,0,.23,0,.35,0,3.82-.05,7.95,1.7,10.6,4.62,2.41,2.66,3.43,6.09,2.93,9.9-.87,6.69-6.31,10.22-12.07,13.95l-5.13,3.26c-8.7,5.33-16.08,9.53-22.66,13.27-10.54,5.99-18.16,10.31-24.15,15.37-5.6,4.72-8.17,6.08-13,15,.02,2.9.05,5.76.07,8.54,5.1-11.32,8.83-15.03,15.42-20.59,5.72-4.83,13.2-9.08,23.56-14.96,7-3.97,14.91-8.47,24.35-14.31l3.75-2.46Z"/>
  <path d="M307.04,412.13c9.44,5.83,16.32,9.16,23.31,13.13,10.36,5.88,17.85,10.14,23.57,14.96,6.59,5.56,9.35,9.94,14.45,21.25.02-2.79.05-5.65.07-8.55-4.82-8.92-6.43-10.94-12.03-15.66-5.99-5.06-13.61-9.38-24.15-15.37-6.57-3.74-12.82-6.79-21.51-12.12l-3.71,2.35Z"/>
  <path d="M322.59,431.87c0-.61-.49-1.1-1.1-1.1s-1.1.49-1.1,1.1c0,.23.09.43.21.6h1.79c.12-.18.21-.38.21-.6Z"/>
  <path d="M321.49,432.97c.38,0,.7-.2.89-.5h-1.79c.2.29.51.5.89.5Z"/>
  <path d="M318.45,431.87c0-1.68,1.36-3.04,3.04-3.04s3.04,1.36,3.04,3.04c0,.94-.43,1.76-1.1,2.32v2.26c1.78-.76,3.04-2.52,3.04-4.58,0-2.74-2.23-4.97-4.97-4.97s-4.97,2.23-4.97,4.97c0,2.05,1.25,3.82,3.03,4.58v-2.26c-.67-.56-1.1-1.38-1.1-2.32Z"/>
  <path d="M323.42,436.44v-2.26c-.53.44-1.2.71-1.93.71s-1.41-.28-1.94-.72v2.26c.6.25,1.25.39,1.94.39s1.34-.14,1.94-.39Z"/>
  <path d="M324.52,431.87c0-1.68-1.36-3.04-3.04-3.04s-3.04,1.36-3.04,3.04c0,.94.43,1.76,1.1,2.32v-1.72h1.04c-.12-.18-.21-.38-.21-.6,0-.61.49-1.1,1.1-1.1s1.1.49,1.1,1.1c0,.23-.09.43-.21.6h1.04v1.72c.67-.56,1.1-1.38,1.1-2.32Z"/>
  <path d="M322.38,432.47c-.2.29-.52.5-.89.5s-.7-.2-.89-.5h-1.04v1.72c.53.44,1.2.72,1.94.72s1.41-.28,1.93-.71v-1.72h-1.04Z"/>
  <path d="M321.49,528.29c.61,0,1.1-.49,1.1-1.1h-2.2c0,.61.49,1.1,1.1,1.1Z"/>
  <path d="M321.49,526.09c-.61,0-1.1.49-1.1,1.1h2.2c0-.61-.49-1.1-1.1-1.1Z"/>
  <path d="M324.52,527.19c0,1.68-1.36,3.04-3.04,3.04s-3.04-1.36-3.04-3.04c0-.94.43-1.76,1.1-2.32v-2.26c-1.78.76-3.03,2.52-3.03,4.58,0,2.74,2.23,4.97,4.97,4.97s4.97-2.23,4.97-4.97c0-2.05-1.25-3.82-3.04-4.58v2.26c.67.56,1.1,1.38,1.1,2.32Z"/>
  <path d="M319.55,522.61v2.26c.53-.44,1.2-.72,1.94-.72s1.41.28,1.93.71v-2.26c-.6-.25-1.25-.39-1.94-.39s-1.34.14-1.94.39Z"/>
  <path d="M318.45,527.19c0,1.68,1.36,3.04,3.04,3.04s3.04-1.36,3.04-3.04c0-.94-.43-1.76-1.1-2.32v2.32h-.84c0,.61-.49,1.1-1.1,1.1s-1.1-.49-1.1-1.1h-.84v-2.32c-.67.56-1.1,1.38-1.1,2.32Z"/>
  <path d="M320.39,527.19c0-.61.49-1.1,1.1-1.1s1.1.49,1.1,1.1h.84v-2.32c-.53-.44-1.2-.71-1.93-.71s-1.41.28-1.94.72v2.32h.84Z"/>
  <path d="M355.6,464.04c0-.61-.49-1.1-1.1-1.1v2.2c.61,0,1.1-.49,1.1-1.1Z"/>
  <path d="M353.4,464.04c0,.61.49,1.1,1.1,1.1v-2.2c-.61,0-1.1.49-1.1,1.1Z"/>
  <path d="M354.5,461.01c1.68,0,3.04,1.36,3.04,3.04s-1.36,3.04-3.04,3.04c-.94,0-1.76-.43-2.32-1.1h-2.26c.76,1.78,2.52,3.04,4.58,3.04,2.74,0,4.97-2.23,4.97-4.97s-2.23-4.97-4.97-4.97c-2.05,0-3.82,1.25-4.58,3.03h2.26c.56-.67,1.38-1.1,2.32-1.1Z"/>
  <path d="M349.92,465.98h2.26c-.44-.53-.71-1.2-.71-1.93s.28-1.41.72-1.94h-2.26c-.25.6-.39,1.25-.39,1.94s.14,1.34.39,1.94Z"/>
  <path d="M354.5,467.08c1.68,0,3.04-1.36,3.04-3.04s-1.36-3.04-3.04-3.04c-.94,0-1.76.43-2.32,1.1h2.32v.84c.61,0,1.1.49,1.1,1.1s-.49,1.1-1.1,1.1v.84h-2.32c.56.67,1.38,1.1,2.32,1.1Z"/>
  <path d="M354.49,465.14c-.61,0-1.1-.49-1.1-1.1s.49-1.1,1.1-1.1v-.84h-2.32c-.44.53-.72,1.2-.72,1.94s.28,1.41.71,1.93h2.32v-.84Z"/>
  <path d="M355.6,494.98c0-.61-.49-1.1-1.1-1.1v2.2c.61,0,1.1-.49,1.1-1.1Z"/>
  <path d="M353.4,494.98c0,.61.49,1.1,1.1,1.1v-2.2c-.61,0-1.1.49-1.1,1.1Z"/>
  <path d="M354.5,491.94c1.68,0,3.04,1.36,3.04,3.04s-1.36,3.04-3.04,3.04c-.94,0-1.76-.43-2.32-1.1h-2.26c.76,1.78,2.52,3.04,4.58,3.04,2.74,0,4.97-2.23,4.97-4.97s-2.23-4.97-4.97-4.97c-2.05,0-3.82,1.25-4.58,3.04h2.26c.56-.67,1.38-1.1,2.32-1.1Z"/>
  <path d="M349.92,496.91h2.26c-.44-.53-.72-1.2-.72-1.94s.28-1.41.71-1.94h-2.26c-.25.6-.39,1.25-.39,1.94s.14,1.34.39,1.94Z"/>
  <path d="M354.5,498.01c1.68,0,3.04-1.36,3.04-3.04s-1.36-3.04-3.04-3.04c-.94,0-1.76.43-2.32,1.1h2.32v.84c.61,0,1.1.49,1.1,1.1s-.49,1.1-1.1,1.1v.84h-2.32c.56.67,1.38,1.1,2.32,1.1Z"/>
  <path d="M354.49,496.08c-.61,0-1.1-.49-1.1-1.1s.49-1.1,1.1-1.1v-.84h-2.32c-.44.53-.71,1.2-.71,1.94s.28,1.41.72,1.94h2.32v-.84Z"/>
</svg>